<svg xmlns="http://www.w3.org/2000/svg" xmlns:xlink="http://www.w3.org/1999/xlink" width="640" height="975" viewBox="0 0 640 975">
  <defs>
    <linearGradient id="linear-gradient" x1="0.5" x2="0.5" y2="1" gradientUnits="objectBoundingBox">
      <stop offset="0" stop-color="#9bbf3b"/>
      <stop offset="1" stop-color="#cee594"/>
    </linearGradient>
    <filter id="Pause" x="147" y="301.5" width="269" height="145" filterUnits="userSpaceOnUse">
      <feOffset dy="3" input="SourceAlpha"/>
      <feGaussianBlur stdDeviation="3" result="blur"/>
      <feFlood flood-opacity="0.161"/>
      <feComposite operator="in" in2="blur"/>
      <feComposite in="SourceGraphic"/>
    </filter>
    <filter id="Baby" x="218" y="225.5" width="269" height="161" filterUnits="userSpaceOnUse">
      <feOffset dy="3" input="SourceAlpha"/>
      <feGaussianBlur stdDeviation="3" result="blur-2"/>
      <feFlood flood-opacity="0.161"/>
      <feComposite operator="in" in2="blur-2"/>
      <feComposite in="SourceGraphic"/>
    </filter>
    <clipPath id="clip-Mail_sonja">
      <rect width="640" height="975"/>
    </clipPath>
  </defs>
  <g id="Mail_sonja" data-name="Mail sonja" clip-path="url(#clip-Mail_sonja)">
    <rect width="640" height="975" fill="#fff"/>
    <rect id="Rechteck_2" data-name="Rechteck 2" width="681" height="533" transform="translate(-23 -29)" fill="#b4d166" opacity="0.195"/>
    <rect id="Rechteck_4" data-name="Rechteck 4" width="681" height="492" transform="translate(-20 -29)" opacity="0.393" fill="url(#linear-gradient)"/>
    <g id="Gruppe_93" data-name="Gruppe 93" transform="translate(38.465)">
      <g id="Gruppe_92" data-name="Gruppe 92" transform="translate(0 381.032)">
        <path id="Pfad_933" data-name="Pfad 933" d="M579.717,531.961a13.277,13.277,0,0,0-2.837-3.833,7.458,7.458,0,0,0-.756-3.5,8.181,8.181,0,0,0-9.476-4.024,23.393,23.393,0,0,0-8.58-6.588,8.164,8.164,0,0,0-5.759-3.759l-.1-.016-.1-.011c-.2-.025-.412-.043-.665-.061l-.143-.01a10.04,10.04,0,0,0-3.426.517c-2.605-1.913-6.375-3.783-10.144-1.936-3.006,1.473-4.525,4.489-4.536,8.99-1.037.781-4.342,3.614-3.992,7.765a7.011,7.011,0,0,0,.535,2.149A24.617,24.617,0,0,0,529,539.405a8.059,8.059,0,0,0-1.76,9.185,7.479,7.479,0,0,0,1.481,2.059,13.36,13.36,0,0,0,1.353,5.641l20.315,41.455c3.513,7.166,12.8,9.851,20.7,5.979l21-10.289c7.9-3.87,11.465-12.853,7.954-20.021Z" transform="translate(-522.387 -505.529)" fill="#b2b2b2"/>
        <path id="Pfad_934" data-name="Pfad 934" d="M604.706,538.333a15.839,15.839,0,1,0,15.839,15.84A15.838,15.838,0,0,0,604.706,538.333Zm0,22.622a6.783,6.783,0,1,1,6.784-6.782A6.784,6.784,0,0,1,604.706,560.955Z" transform="translate(-537.677 -512.967)" fill="#b2b2b2"/>
        <path id="Pfad_935" data-name="Pfad 935" d="M604.706,534.333a15.839,15.839,0,1,0,15.839,15.84A15.838,15.838,0,0,0,604.706,534.333Zm0,22.622a6.783,6.783,0,1,1,6.784-6.782A6.784,6.784,0,0,1,604.706,556.955Z" transform="translate(-537.677 -511.986)" fill="#fff"/>
        <path id="Pfad_936" data-name="Pfad 936" d="M574.294,528.708a13.276,13.276,0,0,0-2.837-3.833,7.458,7.458,0,0,0-.756-3.5,8.182,8.182,0,0,0-9.476-4.024,23.38,23.38,0,0,0-8.581-6.587,8.159,8.159,0,0,0-5.759-3.76l-.1-.015-.1-.012c-.2-.024-.412-.043-.666-.061l-.143-.009a10.039,10.039,0,0,0-3.426.516c-2.606-1.913-6.375-3.783-10.144-1.936-3.006,1.474-4.525,4.49-4.536,8.99-1.036.779-4.342,3.614-3.992,7.764a7,7,0,0,0,.536,2.148,24.623,24.623,0,0,0-.742,11.759,8.056,8.056,0,0,0-1.76,9.184,7.467,7.467,0,0,0,1.48,2.059,13.357,13.357,0,0,0,1.353,5.641l20.316,41.455c3.512,7.166,12.8,9.852,20.7,5.98l21-10.289c7.9-3.87,11.466-12.853,7.954-20.021Z" transform="translate(-521.058 -504.732)" fill="#fff"/>
        <g id="Gruppe_91" data-name="Gruppe 91" transform="translate(5.404 5.426)">
          <path id="Pfad_937" data-name="Pfad 937" d="M571.914,538.11c-2.2-4.492-8.222-6.063-13.454-3.5l-21,10.287c-5.227,2.561-7.678,8.284-5.477,12.779L552.3,599.13c2.2,4.493,8.228,6.063,13.453,3.5l21-10.288c5.232-2.564,7.678-8.284,5.476-12.778ZM560.5,552.2l12.138-5.947.9,1.827-12.141,5.95Zm3.7,7.561-.9-1.835,12.14-5.95.9,1.834Zm1.908,3.9,12.14-5.949.9,1.828-12.141,5.95Zm2.8,5.723,12.141-5.949.9,1.836-12.14,5.949Zm3.705,7.559-.9-1.829,12.141-5.95.9,1.83Z" transform="translate(-528.943 -517.179)" fill="#b4d166"/>
          <path id="Pfad_938" data-name="Pfad 938" d="M563.512,528.654l-33.269,16.3c-1.63.8-2.44,2.488-1.817,3.76.633,1.29,2.458,1.674,4.09.874l33.266-16.3c1.635-.8,2.447-2.476,1.813-3.766C566.972,528.25,565.145,527.853,563.512,528.654Z" transform="translate(-528.216 -515.919)" fill="#fdd491"/>
          <path id="Pfad_939" data-name="Pfad 939" d="M540.145,520.084c-13.632,7.211-7.954,21.712-7.954,21.712l29.683-14.546C551.942,511.8,540.145,520.084,540.145,520.084Z" transform="translate(-528.903 -513.377)" fill="#b4d166"/>
          <path id="Pfad_940" data-name="Pfad 940" d="M548.671,514.815c-.132-.017-.277-.028-.429-.039-2.763-.134-14.58,6.487-14.58,6.487s-3.893,2.922-.426,4.7c0,0,12.753-6.886,17.941-8.437A3,3,0,0,0,548.671,514.815Z" transform="translate(-529.094 -512.619)" fill="#fdd491"/>
          <path id="Pfad_941" data-name="Pfad 941" d="M537.551,520.347l8.743-4.091C534.206,504.51,537.551,520.347,537.551,520.347Z" transform="translate(-530.4 -511.919)" fill="#fdd491"/>
        </g>
      </g>
      <path id="Pfad_942" data-name="Pfad 942" d="M598.4,401.812c-4.383-3.985-11.015-6.436-16.067-8.321a39.038,39.038,0,0,0-10.918-2.591c-3.029-.2-8.257-.146-10.666,2.18-4.7,4.533,4.718,9.3,7.813,10.626,9.482,4.059,21.188,4.68,31.317,3.086l.06.078a12.068,12.068,0,0,0-2.326,9.6c.241,1.438,2.423.826,2.183-.6a9.553,9.553,0,0,1,.848-6.005v5.573c-.02.244-.046.485-.052.733a1.18,1.18,0,0,0,.052.365v.831h2.688v-4.095a8.183,8.183,0,0,1,8.961-5.783c1.454.143,1.44-2.124,0-2.265a10.208,10.208,0,0,0-8.961,3.505v-2.149a14.155,14.155,0,0,1,7-2.906c1.442-.193.825-2.376-.6-2.183a16.959,16.959,0,0,0-1.785.339c1.025-.58,2.036-1.115,2.9-1.637a66,66,0,0,0,9.8-6.834c2.182-1.94,3.951-4.4,4.114-7.385.094-1.718-.724-4.329-2.62-4.816-4.743-1.219-9.924,5.5-12.515,8.488a82.572,82.572,0,0,0-6.282,7.88V0h-2.688V400.558A3.174,3.174,0,0,0,598.4,401.812ZM573.342,403c-2.684-.7-17.116-6.954-8.626-9.295,6.312-1.741,12.982.381,18.841,2.661,4.573,1.779,11.115,4.376,14.618,8.4A64.842,64.842,0,0,1,573.342,403Zm36.466-10.062c2.486-3.092,6.8-9.138,11.12-9.66,2.52-.3,1.223,4.518.67,5.511-1.62,2.9-4.881,4.954-7.565,6.739-2.619,1.742-6.3,3.349-9.274,5.448a.821.821,0,0,0-.464-.24l-.236-.033A68.64,68.64,0,0,1,609.808,392.942Z" transform="translate(-530.47)" fill="#546a21"/>
    </g>
    <g id="Gruppe_118" data-name="Gruppe 118" transform="translate(497.007 -218.162)">
      <g id="Gruppe_113" data-name="Gruppe 113" transform="translate(0 158.596)">
        <g id="Gruppe_112" data-name="Gruppe 112" transform="translate(0 480.608)">
          <path id="Pfad_972" data-name="Pfad 972" d="M225.343,516.753a19.316,19.316,0,0,0-20.974,31.906l-14.814,32.375-1.721-.787a4.106,4.106,0,0,0-3.193-.124,4.681,4.681,0,0,0-1.69,1.1,4.416,4.416,0,0,0-1.841.27,5.148,5.148,0,0,0-2.132,1.53,38.242,38.242,0,1,0,26.576,12.013,4.867,4.867,0,0,0-1.26-4.048,4.385,4.385,0,0,0-2.418-4.323l-1.756-.8,14.81-32.373a19.3,19.3,0,0,0,19.191-28.673A19.185,19.185,0,0,0,225.343,516.753Zm-.051,21.231a8.753,8.753,0,0,1-8.943,5.065,4.287,4.287,0,0,0-.985-.642l-2.92-1.334a4.09,4.09,0,0,0-1.108-.322,8.773,8.773,0,0,1,9.62-14.407,8.71,8.71,0,0,1,3.987,3.662A8.815,8.815,0,0,1,225.292,537.984Z" transform="translate(-138.776 -515.006)" fill="#b2b2b2"/>
          <path id="Pfad_973" data-name="Pfad 973" d="M224.642,522.13a19.317,19.317,0,0,0-20.975,31.907l-14.813,32.375-1.721-.788a4.111,4.111,0,0,0-3.193-.123,4.688,4.688,0,0,0-1.69,1.1,4.411,4.411,0,0,0-1.841.27,5.16,5.16,0,0,0-2.132,1.53,38.235,38.235,0,1,0,26.576,12.013,4.865,4.865,0,0,0-1.259-4.048,4.387,4.387,0,0,0-2.419-4.323l-1.756-.8,14.809-32.372a19.3,19.3,0,0,0,19.192-28.673A19.2,19.2,0,0,0,224.642,522.13Zm-.05,21.232a8.751,8.751,0,0,1-8.944,5.063,4.222,4.222,0,0,0-.985-.641l-2.918-1.336a4.108,4.108,0,0,0-1.109-.321,8.772,8.772,0,0,1,9.619-14.407,8.716,8.716,0,0,1,3.988,3.661A8.82,8.82,0,0,1,224.592,543.362Z" transform="translate(-138.729 -515.365)" fill="#fff"/>
          <g id="Gruppe_111" data-name="Gruppe 111" transform="translate(3.522 8.563)">
            <g id="Gruppe_107" data-name="Gruppe 107" transform="translate(0 67.988)">
              <path id="Pfad_974" data-name="Pfad 974" d="M191.693,600.193a34.732,34.732,0,1,0,17.137,46.039A34.737,34.737,0,0,0,191.693,600.193Z" transform="translate(-142.503 -597.037)" fill="#fdd491"/>
            </g>
            <g id="Gruppe_110" data-name="Gruppe 110" transform="translate(38.055)">
              <g id="Gruppe_108" data-name="Gruppe 108" transform="translate(0 25.705)">
                <path id="Pfad_975" data-name="Pfad 975" d="M216.757,553.105l-2.9-1.328a.752.752,0,0,0-.949.471l-20.683,45.2a.767.767,0,0,0,.272,1.028l2.9,1.322a.752.752,0,0,0,.951-.464l20.681-45.207A.76.76,0,0,0,216.757,553.105Z" transform="translate(-183.873 -551.728)" fill="#b4d166"/>
                <path id="Pfad_976" data-name="Pfad 976" d="M203.856,603.717l-18.632-8.523c-.521-.242-1.242.228-1.612,1.041l-.113.254c-.377.815-.255,1.663.262,1.9l18.628,8.529c.52.236,1.241-.235,1.615-1.048l.115-.249C204.492,604.8,204.374,603.952,203.856,603.717Z" transform="translate(-183.281 -554.626)" fill="#b4d166"/>
                <path id="Pfad_977" data-name="Pfad 977" d="M202.956,600.165l-14.075-6.435c-.395-.185-.937.165-1.219.785l-.085.19c-.282.616-.19,1.255.2,1.434l14.076,6.441c.391.175.938-.174,1.219-.794l.087-.183C203.438,600.984,203.348,600.345,202.956,600.165Z" transform="translate(-183.557 -554.53)" fill="#b4d166"/>
              </g>
              <g id="Gruppe_109" data-name="Gruppe 109" transform="translate(20.519)">
                <path id="Pfad_978" data-name="Pfad 978" d="M227.617,525.61a15.786,15.786,0,1,0,7.789,20.924A15.808,15.808,0,0,0,227.617,525.61Zm4.644,19.484a12.324,12.324,0,1,1-6.085-16.334A12.328,12.328,0,0,1,232.26,545.094Z" transform="translate(-205.268 -524.182)" fill="#b4d166"/>
              </g>
            </g>
            <path id="Pfad_979" data-name="Pfad 979" d="M145.688,617.98a34.741,34.741,0,0,0-2.731,9.092l60.735,27.906A34.768,34.768,0,0,0,212,633.464L153.87,606.755A34.627,34.627,0,0,0,145.688,617.98Z" transform="translate(-142.533 -529.698)" fill="#b4d166"/>
          </g>
        </g>
        <path id="Pfad_980" data-name="Pfad 980" d="M216.15,480.579c-5.417-4.927-13.616-7.956-19.862-10.286a48.219,48.219,0,0,0-13.5-3.2c-3.745-.253-10.206-.18-13.184,2.7-5.805,5.6,5.832,11.5,9.659,13.135,11.721,5.018,26.191,5.786,38.713,3.816l.075.1a14.916,14.916,0,0,0-2.875,11.872c.3,1.779,3,1.022,2.7-.743a11.81,11.81,0,0,1,1.047-7.424v6.889c-.024.3-.056.6-.063.906a1.443,1.443,0,0,0,.063.45v1.028h3.324V494.75a10.115,10.115,0,0,1,11.077-7.148c1.8.176,1.78-2.626,0-2.8a12.617,12.617,0,0,0-11.077,4.333v-2.657a17.494,17.494,0,0,1,8.65-3.593c1.782-.239,1.02-2.937-.745-2.7a20.934,20.934,0,0,0-2.206.419c1.267-.718,2.517-1.379,3.579-2.024a81.611,81.611,0,0,0,12.112-8.448c2.7-2.4,4.884-5.439,5.085-9.128.116-2.124-.9-5.352-3.239-5.954-5.863-1.507-12.267,6.8-15.47,10.492a102.046,102.046,0,0,0-7.766,9.742V0h-3.324V479.029A3.922,3.922,0,0,0,216.15,480.579Zm-30.979,1.474c-3.318-.867-21.158-8.6-10.663-11.49,7.8-2.153,16.048.471,23.289,3.29,5.653,2.2,13.74,5.41,18.072,10.388A80.136,80.136,0,0,1,185.171,482.053Zm45.078-12.439c3.074-3.822,8.4-11.3,13.746-11.941,3.114-.377,1.512,5.585.827,6.811-2,3.584-6.034,6.125-9.351,8.331-3.237,2.155-7.784,4.141-11.465,6.735a1.012,1.012,0,0,0-.573-.3l-.293-.041A84.847,84.847,0,0,1,230.249,469.614Z" transform="translate(-140.685)" fill="#546a21"/>
      </g>
      <line id="Linie_1" data-name="Linie 1" y2="636.892" transform="translate(79.763)" fill="none" stroke="#546a21" stroke-width="3"/>
    </g>
    <g id="Gruppe_117" data-name="Gruppe 117" transform="translate(165.625 -115)">
      <g id="Gruppe_116" data-name="Gruppe 116" transform="translate(2.83 271.566)">
        <path id="Pfad_981" data-name="Pfad 981" d="M110,405.963a38.483,38.483,0,0,1,9.449-8.7l-.875-.823c-4.06-3.811-3.818-10.445.553-15.1,3.7-3.939,9-5.012,13.006-2.932a23.23,23.23,0,1,1,31.951,30.012c2.329,3.864,1.591,9.224-2.109,13.166-4.37,4.651-10.974,5.311-15.037,1.495L145.791,422c-2.96,5.525-7.673,11.865-14.43,14.151-3.9,1.32-10.03,1.817-17.125-3.292l-.178-.136-.114-.091s-.3-.234-.779-.686c-5.818-5.467-10.172-15.5-3.292-25.8Zm39.51-14.038a5.664,5.664,0,1,0-.256-8A5.665,5.665,0,0,0,149.51,391.925Z" transform="translate(-106.354 -360.87)" fill="#b2b2b2"/>
        <path id="Pfad_982" data-name="Pfad 982" d="M106.323,401.052a38.486,38.486,0,0,1,9.449-8.7l-.874-.822c-4.06-3.814-3.817-10.448.553-15.1,3.7-3.939,9-5.013,13-2.933a23.231,23.231,0,1,1,31.951,30.012c2.329,3.867,1.592,9.225-2.11,13.167-4.369,4.653-10.974,5.31-15.036,1.5l-1.146-1.077c-2.958,5.525-7.672,11.864-14.43,14.152-3.9,1.319-10.032,1.819-17.125-3.293l-.179-.134-.115-.091s-.3-.233-.778-.686c-5.818-5.467-10.172-15.5-3.292-25.8Zm39.509-14.038a5.665,5.665,0,1,0-.254-8A5.667,5.667,0,0,0,145.831,387.014Z" transform="translate(-99.899 -359.667)" fill="#fff"/>
        <g id="Gruppe_115" data-name="Gruppe 115" transform="translate(9.266 6.484)">
          <path id="Pfad_983" data-name="Pfad 983" d="M164.219,404.9l12.968,12.18s-8.694,28.746-25.433,16.684c0,0-9.523-7.724-2.762-17.849A36.485,36.485,0,0,1,164.219,404.9Z" transform="translate(-146.567 -377.231)" fill="#fdd491"/>
          <path id="Pfad_984" data-name="Pfad 984" d="M133.634,385.924,162,412.566c1.389,1.3,1.013,3.954-.837,5.923S156.688,421,155.3,419.7l-28.365-26.642c-1.386-1.3-1.013-3.956.84-5.928S132.248,384.623,133.634,385.924Z" transform="translate(-116.761 -372.408)" fill="#b4d166"/>
          <g id="Gruppe_114" data-name="Gruppe 114" transform="translate(23.802)">
            <path id="Pfad_985" data-name="Pfad 985" d="M139.463,372.79a16.743,16.743,0,1,1-23.67.738A16.752,16.752,0,0,1,139.463,372.79Zm-19.779,21.057a12.152,12.152,0,1,0-.541-17.175A12.163,12.163,0,0,0,119.685,393.847Z" transform="translate(-111.262 -368.254)" fill="#b4d166"/>
          </g>
        </g>
      </g>
      <path id="Pfad_986" data-name="Pfad 986" d="M156.856,258.528c3.3-3.15,9.9-10.251,15.946-8.964,2.415.514,3.457,3.272,3.339,5.087-.207,3.152-2.461,5.75-5.242,7.8a86.3,86.3,0,0,1-12.484,7.217c-1.1.551-2.384,1.117-3.689,1.729.741-.15,1.5-.271,2.274-.358,1.819-.2,2.6,2.1.767,2.306a20.169,20.169,0,0,0-8.916,3.069v2.27a14.467,14.467,0,0,1,11.418-3.7c1.834.149,1.851,2.542,0,2.391-5.6-.454-9.888,8.158-11.418,12.148v4.324h-3.426v-.878a1.027,1.027,0,0,1-.065-.384c.008-.262.04-.518.065-.774v-5.886a8.577,8.577,0,0,0-1.079,6.342c.306,1.508-2.475,2.154-2.782.635-.8-3.954.435-13.478,2.964-16.184l-.077-.082c-12.906,1.682-27.821,1.027-39.9-3.26-3.945-1.4-15.939-6.434-9.956-11.221,3.071-2.456,9.73-2.519,13.589-2.3a58.394,58.394,0,0,1,13.912,2.736c6.438,1.991,14.888,4.578,20.472,8.787a4.3,4.3,0,0,1,2.86-1.324V0h3.426V266.851A92.265,92.265,0,0,1,156.856,258.528Zm-6.784,11.712a1.127,1.127,0,0,1,.591.254c3.794-2.217,8.48-3.913,11.818-5.754,3.419-1.885,7.575-4.055,9.637-7.116.706-1.048,2.358-6.142-.852-5.82-5.508.552-11,6.936-14.168,10.2a75.234,75.234,0,0,0-7.327,8.2Zm-26.422-4.613c-7.464-2.408-15.962-4.649-24-2.81-10.818,2.471,7.57,9.074,10.99,9.815a99.144,99.144,0,0,0,31.641,1.87C137.811,270.247,129.476,267.506,123.65,265.627Z" transform="translate(-92.95)" fill="#546a21"/>
    </g>
    <path id="Pfad_1032" data-name="Pfad 1032" d="M448.594,323.734l5.6,3.78a2.5,2.5,0,0,0,2.937-.1l5.325-4.16a2.5,2.5,0,0,1,3.942,2.659l-1.863,6.5a2.5,2.5,0,0,0,1,2.762l5.6,3.779a2.5,2.5,0,0,1-1.311,4.571l-6.754.235a2.5,2.5,0,0,0-2.316,1.809l-1.863,6.5a2.5,2.5,0,0,1-4.752.166l-2.31-6.351a2.5,2.5,0,0,0-2.437-1.644l-6.754.235A2.5,2.5,0,0,1,441.021,340l5.326-4.159a2.5,2.5,0,0,0,.81-2.825l-2.311-6.351A2.5,2.5,0,0,1,448.594,323.734Z" transform="translate(-35 209.42)" fill="#fdd491" opacity="0.158"/>
    <path id="Pfad_1033" data-name="Pfad 1033" d="M452.065,324.15l7.88,5.317a3.515,3.515,0,0,0,4.13-.145l7.49-5.852a3.517,3.517,0,0,1,5.545,3.74l-2.62,9.137a3.513,3.513,0,0,0,1.413,3.885l7.88,5.316a3.517,3.517,0,0,1-1.844,6.43l-9.5.331a3.517,3.517,0,0,0-3.257,2.545l-2.621,9.137a3.517,3.517,0,0,1-6.684.233l-3.25-8.933a3.518,3.518,0,0,0-3.427-2.312l-9.5.331a3.516,3.516,0,0,1-2.288-6.285l7.492-5.85a3.517,3.517,0,0,0,1.139-3.973l-3.251-8.933A3.517,3.517,0,0,1,452.065,324.15Z" transform="translate(112.081 578.753)" fill="#b4d166" opacity="0.158"/>
    <path id="Pfad_1035" data-name="Pfad 1035" d="M446.119,323.437l3.978,2.685a1.775,1.775,0,0,0,2.086-.073l3.782-2.955a1.776,1.776,0,0,1,2.8,1.888l-1.323,4.613a1.774,1.774,0,0,0,.714,1.961l3.978,2.684a1.776,1.776,0,0,1-.931,3.246l-4.8.167a1.776,1.776,0,0,0-1.645,1.285l-1.323,4.613a1.776,1.776,0,0,1-3.375.118l-1.641-4.51a1.776,1.776,0,0,0-1.73-1.167l-4.8.167a1.775,1.775,0,0,1-1.155-3.173l3.783-2.954a1.776,1.776,0,0,0,.575-2.006l-1.641-4.51A1.776,1.776,0,0,1,446.119,323.437Z" transform="translate(-86.919 250.451)" fill="#b4d166" opacity="0.158"/>
    <path id="Pfad_1036" data-name="Pfad 1036" d="M446.839,323.523l4.451,3a1.986,1.986,0,0,0,2.333-.082l4.231-3.305a1.986,1.986,0,0,1,3.132,2.113l-1.48,5.161a1.985,1.985,0,0,0,.8,2.194l4.451,3a1.986,1.986,0,0,1-1.042,3.632l-5.366.187a1.987,1.987,0,0,0-1.84,1.438l-1.481,5.161a1.986,1.986,0,0,1-3.776.132l-1.836-5.046a1.987,1.987,0,0,0-1.936-1.306l-5.366.187a1.986,1.986,0,0,1-1.292-3.55l4.232-3.3a1.987,1.987,0,0,0,.644-2.244l-1.836-5.046A1.987,1.987,0,0,1,446.839,323.523Z" transform="translate(150.366 237.984)" fill="#fdd491" opacity="0.158"/>
    <path id="Pfad_1037" data-name="Pfad 1037" d="M450.171,323.923l6.637,4.478a2.961,2.961,0,0,0,3.479-.122l6.309-4.929a2.962,2.962,0,0,1,4.67,3.15l-2.207,7.7a2.959,2.959,0,0,0,1.19,3.272l6.637,4.477a2.962,2.962,0,0,1-1.553,5.416l-8,.279a2.962,2.962,0,0,0-2.744,2.144l-2.208,7.7a2.962,2.962,0,0,1-5.63.2l-2.737-7.524a2.963,2.963,0,0,0-2.887-1.947l-8,.279a2.962,2.962,0,0,1-1.927-5.294l6.31-4.928a2.962,2.962,0,0,0,.96-3.347l-2.738-7.524A2.962,2.962,0,0,1,450.171,323.923Z" transform="matrix(0.978, 0.208, -0.208, 0.978, -72.915, 112.908)" fill="#b4d166" opacity="0.158"/>
    <path id="Pfad_1038" data-name="Pfad 1038" d="M448.594,323.734l5.6,3.78a2.5,2.5,0,0,0,2.937-.1l5.325-4.16a2.5,2.5,0,0,1,3.942,2.659l-1.863,6.5a2.5,2.5,0,0,0,1,2.762l5.6,3.779a2.5,2.5,0,0,1-1.311,4.571l-6.754.235a2.5,2.5,0,0,0-2.316,1.809l-1.863,6.5a2.5,2.5,0,0,1-4.752.166l-2.31-6.351a2.5,2.5,0,0,0-2.437-1.644l-6.754.235A2.5,2.5,0,0,1,441.021,340l5.326-4.159a2.5,2.5,0,0,0,.81-2.825l-2.311-6.351A2.5,2.5,0,0,1,448.594,323.734Z" transform="matrix(0.921, 0.391, -0.391, 0.921, 299.442, 375.08)" fill="#fdd491" opacity="0.158"/>
    <path id="Pfad_1039" data-name="Pfad 1039" d="M452.065,324.15l7.88,5.317a3.515,3.515,0,0,0,4.13-.145l7.49-5.852a3.517,3.517,0,0,1,5.545,3.74l-2.62,9.137a3.513,3.513,0,0,0,1.413,3.885l7.88,5.316a3.517,3.517,0,0,1-1.844,6.43l-9.5.331a3.517,3.517,0,0,0-3.257,2.545l-2.621,9.137a3.517,3.517,0,0,1-6.684.233l-3.25-8.933a3.518,3.518,0,0,0-3.427-2.312l-9.5.331a3.516,3.516,0,0,1-2.288-6.285l7.492-5.85a3.517,3.517,0,0,0,1.139-3.973l-3.251-8.933A3.517,3.517,0,0,1,452.065,324.15Z" transform="translate(346.382 92.576) rotate(30)" fill="#b4d166" opacity="0.158"/>
    <path id="Pfad_1040" data-name="Pfad 1040" d="M445.977,323.42l3.885,2.622a1.733,1.733,0,0,0,2.037-.071l3.693-2.885a1.734,1.734,0,0,1,2.734,1.844l-1.292,4.505a1.732,1.732,0,0,0,.7,1.915l3.885,2.621a1.734,1.734,0,0,1-.909,3.17l-4.684.163a1.734,1.734,0,0,0-1.606,1.255l-1.292,4.505a1.734,1.734,0,0,1-3.3.115l-1.6-4.4a1.734,1.734,0,0,0-1.69-1.14l-4.684.163a1.734,1.734,0,0,1-1.128-3.1l3.694-2.885a1.734,1.734,0,0,0,.562-1.959l-1.6-4.4A1.734,1.734,0,0,1,445.977,323.42Z" transform="translate(312.29 365.043) rotate(30)" fill="#b4d166" opacity="0.158"/>
    <g id="Gruppe_119" data-name="Gruppe 119" transform="translate(-3.5)">
      <g transform="matrix(1, 0, 0, 1, 3.5, 0)" filter="url(#Pause)">
        <text id="Pause-2" data-name="Pause" transform="translate(157 404.5)" fill="#546a21" stroke="#546a21" stroke-linecap="round" stroke-linejoin="round" stroke-width="1" font-size="99" font-family="Didot-Bold, Didot" font-weight="700" letter-spacing="-0.03em"><tspan x="0" y="0">Pause</tspan></text>
      </g>
      <g transform="matrix(1, 0, 0, 1, 3.5, 0)" filter="url(#Baby)">
        <text id="Baby-2" data-name="Baby" transform="translate(228 340.5)" fill="#546a21" stroke="#546a21" stroke-linecap="round" stroke-linejoin="round" stroke-width="1" font-size="111" font-family="Didot-Bold, Didot" font-weight="700" letter-spacing="-0.01em"><tspan x="0" y="0">Baby</tspan></text>
      </g>
      <g id="Gruppe_106" data-name="Gruppe 106" transform="translate(403.914 371.776)">
        <path id="Pfad_966" data-name="Pfad 966" d="M615.8,206.9l-12.709-6.909-1.515-14.385a12.077,12.077,0,0,0-20.321-7.5l-10.5,9.952L556.6,185.054a12.077,12.077,0,0,0-13.413,17.007l6.222,13.061L542.18,227.65a12.075,12.075,0,0,0,12.031,18.011l14.343-1.88,9.68,10.748a12.083,12.083,0,0,0,12.25,3.543,12,12,0,0,0,8.6-9.418l2.644-14.222,13.213-5.886A12.077,12.077,0,0,0,615.8,206.9Zm-3.263,16.238-16.055,7.151-3.213,17.281a6.16,6.16,0,0,1-10.634,3l-11.763-13.06L553.442,239.8a6.16,6.16,0,0,1-6.137-9.188l8.786-15.223-7.559-15.867a6.16,6.16,0,0,1,6.842-8.675l17.193,3.652L585.322,182.4a6.16,6.16,0,0,1,10.366,3.825l1.839,17.48L612.97,212.1a6.16,6.16,0,0,1-.437,11.039Z" transform="translate(-538.577 -172.822)" fill="#b2b2b2"/>
        <path id="Pfad_967" data-name="Pfad 967" d="M612.661,203.769l-12.709-6.908-1.513-14.386a12.077,12.077,0,0,0-20.321-7.5l-10.5,9.952-14.15-3.005a12.078,12.078,0,0,0-13.414,17.008l6.222,13.06-7.231,12.528a12.075,12.075,0,0,0,12.031,18.012l14.343-1.88L575.1,251.4a12.079,12.079,0,0,0,12.25,3.542,12,12,0,0,0,8.6-9.417l2.643-14.223,13.214-5.885a12.078,12.078,0,0,0,.855-21.644ZM609.4,220.008l-16.056,7.15-3.212,17.281a6.16,6.16,0,0,1-10.634,3l-11.763-13.061-17.427,2.286a6.161,6.161,0,0,1-6.137-9.188l8.786-15.223L545.4,196.384a6.161,6.161,0,0,1,6.843-8.676l17.192,3.652,12.756-12.092a6.161,6.161,0,0,1,10.366,3.827l1.839,17.48,15.443,8.395a6.16,6.16,0,0,1-.436,11.04Z" transform="translate(-537.415 -171.661)" fill="#fff"/>
        <path id="Pfad_968" data-name="Pfad 968" d="M612.993,208.111l-14.076-7.651-1.676-15.933a9.118,9.118,0,0,0-15.343-5.663l-11.627,11.021L554.6,186.556A9.12,9.12,0,0,0,544.471,199.4l6.891,14.464-8.01,13.875a9.12,9.12,0,0,0,9.084,13.6l15.885-2.083,10.721,11.9a9.12,9.12,0,0,0,15.743-4.436l2.927-15.752,14.635-6.518a9.119,9.119,0,0,0,.646-16.342Z" transform="translate(-539.16 -173.403)" fill="#fdd491"/>
        <g id="Gruppe_105" data-name="Gruppe 105" transform="translate(23.929 29.973)">
          <g id="Gruppe_103" data-name="Gruppe 103">
            <g id="Gruppe_101" data-name="Gruppe 101">
              <path id="Pfad_969" data-name="Pfad 969" d="M582.828,219.634c-4.043-1.492-7.089,2.363-7.216,2.527a.81.81,0,1,0,1.281.992c.024-.03,2.434-3.084,5.373-2,2.922,1.079,2.793,4.853,2.786,5.012a.811.811,0,0,0,1.619.078C586.682,226.036,586.87,221.127,582.828,219.634Z" transform="translate(-575.441 -219.292)" fill="#546a21"/>
            </g>
            <g id="Gruppe_102" data-name="Gruppe 102" transform="translate(19.296 7.123)">
              <path id="Pfad_970" data-name="Pfad 970" d="M613.492,230.954c-4.043-1.493-7.089,2.362-7.217,2.527a.811.811,0,1,0,1.282.992c.024-.031,2.433-3.084,5.373-2,2.922,1.078,2.793,4.854,2.786,5.012a.81.81,0,0,0,.529.8.79.79,0,0,0,.241.049.811.811,0,0,0,.849-.771C617.346,237.356,617.534,232.445,613.492,230.954Z" transform="translate(-606.105 -230.611)" fill="#546a21"/>
            </g>
          </g>
          <g id="Gruppe_104" data-name="Gruppe 104" transform="translate(4.452 15.548)">
            <path id="Pfad_971" data-name="Pfad 971" d="M595.313,248.971c-.135.172-3.333,4.194-7.348,2.711s-3.834-6.617-3.825-6.833a.81.81,0,1,0-1.619-.077c-.013.266-.254,6.535,4.882,8.432s9.027-3.027,9.191-3.238a.811.811,0,0,0-1.281-.994Z" transform="translate(-582.516 -243.999)" fill="#546a21"/>
          </g>
        </g>
      </g>
    </g>
    <g id="Gruppe_120" data-name="Gruppe 120" transform="translate(420.77 -99)">
      <g id="Gruppe_92-2" data-name="Gruppe 92" transform="translate(7.872 262.613)">
        <path id="Pfad_933-2" data-name="Pfad 933" d="M541.413,524.51a9.151,9.151,0,0,1,1.955-2.642,5.14,5.14,0,0,1,.521-2.41,5.639,5.639,0,0,1,6.531-2.773,16.123,16.123,0,0,1,5.914-4.541,5.627,5.627,0,0,1,3.969-2.591l.069-.011.069-.008c.136-.017.284-.03.458-.042l.1-.007a6.919,6.919,0,0,1,2.361.356c1.8-1.318,4.393-2.607,6.991-1.334,2.072,1.015,3.119,3.094,3.126,6.2.715.538,2.992,2.491,2.751,5.352a4.834,4.834,0,0,1-.369,1.481,16.967,16.967,0,0,1,.511,8.1,5.555,5.555,0,0,1,1.213,6.33,5.155,5.155,0,0,1-1.021,1.419,9.208,9.208,0,0,1-.932,3.888l-14,28.571c-2.421,4.939-8.821,6.789-14.265,4.121l-14.471-7.091c-5.443-2.667-7.9-8.859-5.482-13.8Z" transform="translate(-523.811 -506.293)" fill="#b2b2b2"/>
        <path id="Pfad_934-2" data-name="Pfad 934" d="M599.784,538.333a10.916,10.916,0,1,1-10.916,10.917A10.916,10.916,0,0,1,599.784,538.333Zm0,15.591a4.675,4.675,0,1,0-4.675-4.674A4.675,4.675,0,0,0,599.784,553.924Z" transform="translate(-588.868 -520.85)" fill="#b2b2b2"/>
        <path id="Pfad_935-2" data-name="Pfad 935" d="M599.784,534.333a10.916,10.916,0,1,1-10.916,10.917A10.916,10.916,0,0,1,599.784,534.333Zm0,15.591a4.675,4.675,0,1,0-4.675-4.674A4.675,4.675,0,0,0,599.784,549.924Z" transform="translate(-588.868 -518.931)" fill="#fff"/>
        <path id="Pfad_936-2" data-name="Pfad 936" d="M535.99,521.256a9.15,9.15,0,0,1,1.955-2.642,5.139,5.139,0,0,1,.521-2.41A5.639,5.639,0,0,1,545,513.431a16.113,16.113,0,0,1,5.914-4.54,5.623,5.623,0,0,1,3.969-2.591l.068-.01.07-.008c.136-.017.284-.03.459-.042l.1-.006a6.919,6.919,0,0,1,2.361.356c1.8-1.318,4.393-2.607,6.991-1.334,2.072,1.016,3.119,3.094,3.127,6.2.714.537,2.993,2.491,2.751,5.351a4.824,4.824,0,0,1-.369,1.481,16.971,16.971,0,0,1,.511,8.1,5.552,5.552,0,0,1,1.213,6.33,5.146,5.146,0,0,1-1.02,1.419,9.207,9.207,0,0,1-.932,3.888l-14,28.571c-2.42,4.939-8.82,6.79-14.264,4.121l-14.471-7.091c-5.444-2.667-7.9-8.859-5.482-13.8Z" transform="translate(-515.567 -504.732)" fill="#fff"/>
        <g id="Gruppe_91-2" data-name="Gruppe 91" transform="translate(9.215 3.74)">
          <path id="Pfad_937-2" data-name="Pfad 937" d="M545.739,536.64c1.518-3.1,5.667-4.179,9.273-2.412l14.47,7.09c3.6,1.765,5.292,5.71,3.775,8.807l-14,28.57c-1.517,3.1-5.671,4.179-9.272,2.412l-14.471-7.091c-3.606-1.767-5.292-5.71-3.774-8.807Zm7.864,9.711-8.366-4.1-.619,1.259,8.368,4.1Zm-2.553,5.211.62-1.264-8.367-4.1-.621,1.264Zm-1.315,2.685-8.367-4.1-.619,1.26,8.368,4.1Zm-1.933,3.944-8.368-4.1-.62,1.265,8.367,4.1Zm-2.554,5.21.617-1.261-8.367-4.1-.617,1.261Z" transform="translate(-531.18 -522.214)" fill="#b4d166"/>
          <path id="Pfad_938-2" data-name="Pfad 938" d="M531.179,528.525l22.929,11.237a1.831,1.831,0,1,1-1.567,3.194l-22.928-11.236a1.831,1.831,0,1,1,1.565-3.195Z" transform="translate(-511.33 -519.748)" fill="#fdd491"/>
          <path id="Pfad_939-2" data-name="Pfad 939" d="M545.995,519.4c9.4,4.97,5.482,14.964,5.482,14.964l-20.458-10.025C537.864,513.689,545.995,519.4,545.995,519.4Z" transform="translate(-509.568 -514.773)" fill="#b4d166"/>
          <path id="Pfad_940-2" data-name="Pfad 940" d="M533.526,514.8c.091-.011.191-.019.3-.027,1.9-.093,10.049,4.471,10.049,4.471s2.683,2.014.293,3.24c0,0-8.789-4.746-12.365-5.815A2.066,2.066,0,0,1,533.526,514.8Z" transform="translate(-502.843 -513.288)" fill="#fdd491"/>
          <path id="Pfad_941-2" data-name="Pfad 941" d="M543.152,517.728l-6.026-2.82C545.458,506.812,543.152,517.728,543.152,517.728Z" transform="translate(-503.906 -511.919)" fill="#fdd491"/>
        </g>
      </g>
      <path id="Pfad_942-2" data-name="Pfad 942" d="M577.628,276.934c3.021-2.747,7.592-4.436,11.074-5.735a26.9,26.9,0,0,1,7.525-1.786c2.088-.141,5.69-.1,7.351,1.5,3.237,3.124-3.251,6.41-5.385,7.324-6.535,2.8-14.6,3.225-21.584,2.127l-.042.054a8.317,8.317,0,0,1,1.6,6.62c-.166.991-1.67.569-1.5-.415a6.584,6.584,0,0,0-.584-4.139v3.841c.014.168.032.335.036.505a.813.813,0,0,1-.036.251v.573h-1.853v-2.822a5.64,5.64,0,0,0-6.176-3.986c-1,.1-.992-1.464,0-1.561a7.036,7.036,0,0,1,6.176,2.416v-1.481a9.755,9.755,0,0,0-4.823-2c-.994-.133-.569-1.637.415-1.5a11.7,11.7,0,0,1,1.231.234c-.707-.4-1.4-.768-2-1.128a45.484,45.484,0,0,1-6.753-4.71,7.516,7.516,0,0,1-2.835-5.09c-.065-1.184.5-2.984,1.806-3.32,3.269-.84,6.839,3.794,8.626,5.85a56.912,56.912,0,0,1,4.329,5.431V0h1.853V276.07A2.187,2.187,0,0,1,577.628,276.934Zm17.272.822c1.85-.483,11.8-4.793,5.945-6.406-4.35-1.2-8.948.263-12.985,1.834-3.151,1.226-7.66,3.016-10.075,5.793A44.689,44.689,0,0,0,594.9,277.756Zm-25.133-6.935c-1.713-2.131-4.684-6.3-7.664-6.658-1.737-.21-.843,3.114-.462,3.8,1.117,2,3.364,3.414,5.214,4.645,1.8,1.2,4.34,2.308,6.392,3.755a.566.566,0,0,1,.32-.165l.163-.023A47.3,47.3,0,0,0,569.767,270.821Z" transform="translate(-559.462)" fill="#546a21"/>
    </g>
  </g>
</svg>
